/* XPM */
static char * close_active_xpm[] = {
"20 30 27 1",
" 	c None",
".	c #008080",
"+	c #427B7C",
"@	c #A25E61",
"#	c #D2454C",
"$	c #E03C46",
"%	c #D1454D",
"&	c #A15E61",
"*	c #826C6E",
"=	c #DF3D47",
"-	c #F04D54",
";	c #F25056",
">	c #DE3D47",
",	c #E8414A",
"'	c #E7414A",
")	c #DF3E47",
"!	c #447B7C",
"~	c #F04E54",
"{	c #A35F62",
"]	c #D1464D",
"^	c #E03D47",
"/	c #D2454D",
"(	c #A25F63",
"_	c #DE3E46",
":	c #427C7C",
"<	c #806D6E",
"[	c #D1454E",
"....................",
"....................",
"....................",
"....................",
"....................",
"....................",
"....................",
"....................",
"......+@#$$%&+......",
".....*=-;;;;->*.....",
"....*,;;;;;;;;'*....",
"...+=;;;;;;;;;;)!...",
"...@-;;;;;;;;;;~{...",
"...#;;;;;;;;;;;;]...",
"...^;;;;;;;;;;;;=...",
"...=;;;;;;;;;;;;)...",
".../;;;;;;;;;;;;]...",
"...&-;;;;;;;;;;-(...",
"...+>;;;;;;;;;;_:...",
"....*';;;;;;;;'<....",
".....*)~;;;;-_<.....",
"......!{[==[(:......",
"....................",
"....................",
"....................",
"....................",
"....................",
"....................",
"....................",
"...................."};
