/* XPM */
static char * close_inactive_xpm[] = {
"20 30 19 1",
" 	c None",
".	c #008080",
"+	c #3A8686",
"@	c #8CA2A2",
"#	c #B3B8B8",
"$	c #BEBFBF",
"%	c #BFC0C0",
"&	c #B2B7B7",
"*	c #8DA4A4",
"=	c #729797",
"-	c #C7C7C7",
";	c #C8C8C8",
">	c #719797",
",	c #C3C3C3",
"'	c #378686",
")	c #8CA3A3",
"!	c #398686",
"~	c #C2C2C2",
"{	c #709797",
"....................",
"....................",
"....................",
"....................",
"....................",
"....................",
"....................",
"....................",
"......+@#$%&*+......",
".....=$-;;;;-%>.....",
"....=,;;;;;;;;,>....",
"...+$;;;;;;;;;;$'...",
"...@-;;;;;;;;;;-)...",
"...#;;;;;;;;;;;;#...",
"...$;;;;;;;;;;;;$...",
"...$;;;;;;;;;;;;$...",
"...&;;;;;;;;;;;;#...",
"...*-;;;;;;;;;;-)...",
"...+%;;;;;;;;;;$!...",
"....>,;;;;;;;;~{....",
".....>$-;;;;-${.....",
"......')#%%#)!......",
"....................",
"....................",
"....................",
"....................",
"....................",
"....................",
"....................",
"...................."};
