/* XPM */
static char * close_prelight_xpm[] = {
"20 30 39 1",
" 	c None",
".	c #008080",
"+	c #427B7C",
"@	c #A25E61",
"#	c #D2454C",
"$	c #E03C46",
"%	c #D1454D",
"&	c #A15E61",
"*	c #826C6E",
"=	c #DF3D47",
"-	c #F04D54",
";	c #F25056",
">	c #DE3D47",
",	c #E8414A",
"'	c #E7414A",
")	c #EB4E54",
"!	c #EF4F55",
"~	c #DF3E47",
"{	c #447B7C",
"]	c #EC4E54",
"^	c #812B2E",
"/	c #8E2F33",
"(	c #E84D52",
"_	c #822B2E",
":	c #F04E54",
"<	c #A35F62",
"[	c #79282B",
"}	c #8D2F32",
"|	c #D1464D",
"1	c #E03D47",
"2	c #8C2E32",
"3	c #E74C52",
"4	c #E64C52",
"5	c #D2454D",
"6	c #A25F63",
"7	c #DE3E46",
"8	c #427C7C",
"9	c #806D6E",
"0	c #D1454E",
"....................",
"....................",
"....................",
"....................",
"....................",
"....................",
"....................",
"....................",
"......+@#$$%&+......",
".....*=-;;;;->*.....",
"....*,;;;;;;;;'*....",
"...+=;;)!;;!);;~{...",
"...@-;]^/((/_];:<...",
"...#;;!/[}}[/!;;|...",
"...1;;;(/[[23;;;=...",
"...=;;;(/[[24;;;~...",
"...5;;!/[}}[/!;;|...",
"...&-;]_/((/_];-6...",
"...+>;;]!;;!];;78...",
"....*';;;;;;;;'9....",
".....*~:;;;;-79.....",
"......{<0==068......",
"....................",
"....................",
"....................",
"....................",
"....................",
"....................",
"....................",
"...................."};
