/* XPM */
static char * close_pressed_xpm[] = {
"20 30 32 1",
" 	c None",
".	c #008080",
"+	c #427B7C",
"@	c #9F5F62",
"#	c #C2444B",
"$	c #D12F3B",
"%	c #9D5F62",
"&	c #826C6E",
"*	c #D0313C",
"=	c #D52735",
"-	c #816C6E",
";	c #D52836",
">	c #CF2634",
",	c #D22734",
"'	c #447B7C",
")	c #D02634",
"!	c #72151C",
"~	c #7D171F",
"{	c #CC2533",
"]	c #9E6063",
"^	c #C3434A",
"/	c #6A131A",
"(	c #7C171F",
"_	c #D0303C",
":	c #7B161F",
"<	c #CB2533",
"[	c #CA2532",
"}	c #9D6063",
"|	c #CF323D",
"1	c #427C7C",
"2	c #7E6D6F",
"3	c #C1444B",
"....................",
"....................",
"....................",
"....................",
"....................",
"....................",
"....................",
"....................",
"......+@#$$#%+......",
".....&*======*-.....",
"....&;========;-....",
"...+*==>,==,>==*'...",
"...@==)!~{{~!)==]...",
"...^==,~/((/~,==#...",
"..._==={~//:<===*...",
"...*==={~//:[===*...",
"...#==,~/((/~,==#...",
"...%==)!~{{~!)==}...",
"...+*==),==,)==|1...",
"....-;========;2....",
".....-*======|2.....",
"......']3__3}1......",
"....................",
"....................",
"....................",
"....................",
"....................",
"....................",
"....................",
"...................."};
