/* XPM */
static char * maximize_active_xpm[] = {
"20 30 25 1",
" 	c None",
".	c #008080",
"+	c #02887B",
"@	c #0EA85D",
"#	c #1CC840",
"$	c #24D335",
"%	c #079A6B",
"&	c #24D235",
"*	c #36E746",
"=	c #39EA49",
"-	c #23D235",
";	c #079B6B",
">	c #2CDB3A",
",	c #2BDB3A",
"'	c #23D237",
")	c #02877B",
"!	c #1DC740",
"~	c #24D236",
"{	c #1CC940",
"]	c #0EA95E",
"^	c #23D136",
"/	c #01867B",
"(	c #2BDB39",
"_	c #069A6C",
":	c #1DC741",
"....................",
"....................",
"....................",
"....................",
"....................",
"....................",
"....................",
"....................",
"......+@#$$#@+......",
".....%&*====*-;.....",
"....%>========,;....",
"...+&==========')...",
"...@*==========*@...",
"...#============!...",
"...~============-...",
"...&============'...",
"...{============!...",
"...@*==========*]...",
"...+-==========^/...",
"....;,========(_....",
".....;'*====*^_.....",
"......)@:--:]/......",
"....................",
"....................",
"....................",
"....................",
"....................",
"....................",
"....................",
"...................."};
