/* XPM */
static char * hide_prelight_xpm[] = {
"20 30 34 1",
" 	c None",
".	c #008080",
"+	c #46837B",
"@	c #A7945A",
"#	c #D7A638",
"$	c #E7AE27",
"%	c #E6AE27",
"&	c #D6A738",
"*	c #A7935B",
"=	c #868C6A",
"-	c #E6AF27",
";	c #F8C334",
">	c #FAC536",
",	c #E5AF27",
"'	c #858B6A",
")	c #EEB729",
"!	c #E6B028",
"~	c #44837B",
"{	c #F8C333",
"]	c #A6935C",
"^	c #D7A637",
"/	c #D7A739",
"(	c #997921",
"_	c #7D621B",
":	c #9A7921",
"<	c #9B7A21",
"[	c #E6AF28",
"}	c #D8A638",
"|	c #F7C233",
"1	c #A4925C",
"2	c #E5AF29",
"3	c #42827B",
"4	c #EEB628",
"5	c #838B6B",
"....................",
"....................",
"....................",
"....................",
"....................",
"....................",
"....................",
"....................",
"......+@#$%&*+......",
".....=-;>>>>;,'.....",
"....=)>>>>>>>>)'....",
"...+->>>>>>>>>>!~...",
"...@;>>>>>>>>>>{]...",
"...^>>>>>>>>>>>>/...",
"...!>>(______(>>,...",
"...->>:______<>>[...",
"...}>>>>>>>>>>>>/...",
"...*;>>>>>>>>>>|1...",
"...+,>>>>>>>>>>23...",
"....')>>>>>>>>45....",
".....'[{>>>>|25.....",
"......~]/--/13......",
"....................",
"....................",
"....................",
"....................",
"....................",
"....................",
"....................",
"...................."};
