/* XPM */
static char * hide_active_xpm[] = {
"20 30 30 1",
" 	c None",
".	c #008080",
"+	c #46837B",
"@	c #A7945A",
"#	c #D7A638",
"$	c #E7AE27",
"%	c #E6AE27",
"&	c #D6A738",
"*	c #A7935B",
"=	c #868C6A",
"-	c #E6AF27",
";	c #F8C334",
">	c #FAC536",
",	c #E5AF27",
"'	c #858B6A",
")	c #EEB729",
"!	c #E6B028",
"~	c #44837B",
"{	c #F8C333",
"]	c #A6935C",
"^	c #D7A637",
"/	c #D7A739",
"(	c #E6AF28",
"_	c #D8A638",
":	c #F7C233",
"<	c #A4925C",
"[	c #E5AF29",
"}	c #42827B",
"|	c #EEB628",
"1	c #838B6B",
"....................",
"....................",
"....................",
"....................",
"....................",
"....................",
"....................",
"....................",
"......+@#$%&*+......",
".....=-;>>>>;,'.....",
"....=)>>>>>>>>)'....",
"...+->>>>>>>>>>!~...",
"...@;>>>>>>>>>>{]...",
"...^>>>>>>>>>>>>/...",
"...!>>>>>>>>>>>>,...",
"...->>>>>>>>>>>>(...",
"..._>>>>>>>>>>>>/...",
"...*;>>>>>>>>>>:<...",
"...+,>>>>>>>>>>[}...",
"....')>>>>>>>>|1....",
".....'({>>>>:[1.....",
"......~]/--/<}......",
"....................",
"....................",
"....................",
"....................",
"....................",
"....................",
"....................",
"...................."};
