/* XPM */
static char * hide_pressed_xpm[] = {
"20 30 27 1",
" 	c None",
".	c #008080",
"+	c #46837B",
"@	c #A2915C",
"#	c #C7993C",
"$	c #D69D20",
"%	c #C6993C",
"&	c #A2905C",
"*	c #858B6A",
"=	c #D59D22",
"-	c #DA9E10",
";	c #858B6B",
">	c #DA9E12",
",	c #D59D23",
"'	c #44837B",
")	c #A1915D",
"!	c #C7993B",
"~	c #D59D21",
"{	c #85610A",
"]	c #6D4F08",
"^	c #86610A",
"/	c #87620A",
"(	c #A0905D",
"_	c #D49C24",
":	c #42827B",
"<	c #838B6B",
"[	c #C6993D",
"....................",
"....................",
"....................",
"....................",
"....................",
"....................",
"....................",
"....................",
"......+@#$$%&+......",
".....*=------=;.....",
"....*>-------->;....",
"...+=----------,'...",
"...@------------)...",
"...!------------%...",
"...~--{]]]]]]{--=...",
"...=--^]]]]]]/--,...",
"...#------------%...",
"...&------------(...",
"...+=----------_:...",
"....;>--------><....",
".....;,------_<.....",
"......')[~~[(:......",
"....................",
"....................",
"....................",
"....................",
"....................",
"....................",
"....................",
"...................."};
