/* XPM */
static char * maximize_pressed_xpm[] = {
"20 30 27 1",
" 	c None",
".	c #008080",
"+	c #02887B",
"@	c #0BA65E",
"#	c #0FB740",
"$	c #12BF29",
"%	c #10B740",
"&	c #07996B",
"*	c #12BE2A",
"=	c #13C11E",
"-	c #079A6C",
";	c #13C11F",
">	c #12BE2B",
",	c #02877B",
"'	c #11B01B",
")	c #0A6810",
"!	c #09600F",
"~	c #0D8114",
"{	c #0CA55E",
"]	c #0FB63F",
"^	c #12B21C",
"/	c #0A6A10",
"(	c #0CA65F",
"_	c #12BE2C",
":	c #01867B",
"<	c #07996C",
"[	c #10B741",
"....................",
"....................",
"....................",
"....................",
"....................",
"....................",
"....................",
"....................",
"......+@#$$%@+......",
".....&*======*-.....",
"....&;========;-....",
"...+*==========>,...",
"...@====')!!~==={...",
"...]==='=')!!===%...",
"...$===)'=^/!===*...",
"...*===!)'=^/===>...",
"...#===!!)'='===%...",
"...@===~!!)'====(...",
"...+*==========_:...",
"....-;========;<....",
".....->======_<.....",
"......,{[$$[(:......",
"....................",
"....................",
"....................",
"....................",
"....................",
"....................",
"....................",
"...................."};
